<?xml version="1.0" encoding="utf-8"?>
<!-- Generator: Adobe Illustrator 16.0.4, SVG Export Plug-In . SVG Version: 6.00 Build 0)  -->
<!DOCTYPE svg PUBLIC "-//W3C//DTD SVG 1.1//EN" "http://www.w3.org/Graphics/SVG/1.1/DTD/svg11.dtd">
<svg version="1.1" id="Layer_1" xmlns="http://www.w3.org/2000/svg" xmlns:xlink="http://www.w3.org/1999/xlink" x="0px" y="0px"
	 width="174.884px" height="75.118px" viewBox="0 0 174.884 75.118" enable-background="new 0 0 174.884 75.118"
	 xml:space="preserve">
<g>
	<path fill="#0A161B" d="M8.898,75.118H0V0.076h8.898v34.52h34.841V0.076h8.898v75.042h-8.898v-39.45H8.898V75.118z"/>
</g>
<g>
	<path fill="#0A161B" d="M55.857,75.042V0h8.898v38.593h31.303v1.072H64.755V73.97h33.769v1.072H55.857z"/>
</g>
<g>
	<path fill="#0A161B" d="M77.294,48.74v-0.925c-1.323,0.528-2.528,1.595-3.615,3.195c-1.087,1.603-1.661,3.108-1.719,4.519v13.355
		h-3.085V46.846h3.085v7.009c0.47-1.704,1.367-3.313,2.689-4.827c1.322-1.514,2.821-2.299,4.497-2.357h0.176
		c0.588,0,1.08,0.198,1.477,0.595c0.396,0.396,0.595,0.889,0.595,1.476c0,0.589-0.199,1.074-0.595,1.455
		c-0.397,0.382-0.889,0.572-1.477,0.572s-1.073-0.19-1.454-0.572C77.484,49.814,77.294,49.329,77.294,48.74z"/>
	<path fill="#0A161B" d="M101.581,68.885c-1.999,0-3.365-0.381-4.099-1.146c-0.677-0.646-1.014-1.205-1.014-1.675v-0.926
		c-1.441,2.614-3.747,3.922-6.921,3.922c-3.702,0-5.804-1.674-6.303-5.023c-0.06-0.354-0.088-0.713-0.088-1.08
		s0.058-0.771,0.176-1.213c0.117-0.44,0.456-0.926,1.014-1.454c1.116-1.059,3.57-1.704,7.361-1.939
		c0.94-0.089,1.807-0.133,2.601-0.133c0.793,0,1.513,0.029,2.16,0.089v-7.318c-0.06-0.028-0.06-0.168,0-0.419
		c0.058-0.249,0.006-0.572-0.155-0.969c-0.162-0.397-0.375-0.786-0.639-1.168c-0.265-0.381-0.735-0.713-1.411-0.992
		c-0.676-0.279-1.558-0.419-2.645-0.419c-1.087,0-2.358,0.198-3.812,0.596c-1.455,0.396-2.521,0.786-3.196,1.168l-0.177-0.309
		c2.615-1.204,5.274-1.807,7.979-1.807c3.026,0,5.025,0.542,5.995,1.631c0.764,0.852,1.146,1.748,1.146,2.688v14.768
		c0,0.852,0.169,1.506,0.507,1.961c0.337,0.455,0.683,0.698,1.036,0.727l0.485,0.089h1.366v0.353H101.581z M90.253,68.709
		c1.557,0,2.959-0.537,4.209-1.609c1.249-1.072,1.917-2.107,2.006-3.106v-5.335c-0.793-0.059-1.595-0.087-2.403-0.087
		c-0.808,0-1.609,0.044-2.402,0.132c-2.233,0.264-3.688,0.765-4.364,1.499c-0.676,0.734-1.014,1.749-1.014,3.04
		c0,0.236,0.014,0.5,0.043,0.795C86.594,67.152,87.901,68.709,90.253,68.709z"/>
	<path fill="#0A161B" d="M123.665,68.885c-1.205,0-2.123-0.265-2.754-0.793c-0.632-0.529-0.963-1.059-0.992-1.587l-0.044-0.749
		V51.915c0-2.321-0.603-3.805-1.807-4.452c-0.617-0.294-1.382-0.441-2.292-0.441c-1.881,0-3.571,0.743-5.069,2.227
		c-1.499,1.483-2.249,2.814-2.249,3.989v15.647h-3.085V46.846h3.085v5.025c0.5-1.264,1.426-2.447,2.777-3.55
		c1.351-1.102,2.835-1.651,4.452-1.651c1.617,0,2.932,0.153,3.945,0.463c1.015,0.308,1.755,0.741,2.226,1.3
		c0.734,0.91,1.103,2.086,1.103,3.525v13.798c0,0.852,0.168,1.506,0.506,1.961c0.337,0.455,0.684,0.698,1.037,0.727l0.485,0.089
		h1.366v0.353H123.665z"/>
	<path fill="#0A161B" d="M138.431,47.021c-2.086,0-3.827,1-5.223,2.998c-1.397,1.999-2.095,4.761-2.095,8.287
		c0,3.525,0.64,6.142,1.917,7.846c1.278,1.704,2.961,2.557,5.047,2.557c2.616,0,4.937-0.441,6.965-1.322l0.132,0.308
		c-2.087,0.912-4.526,1.366-7.317,1.366c-2.793,0-5.114-0.881-6.965-2.645c-1.851-1.763-2.777-4.481-2.777-8.154
		s0.97-6.524,2.909-8.552c1.939-2.028,4.409-3.04,7.405-3.04c1.675,0,3.225,0.382,4.651,1.146c1.425,0.765,2.476,1.925,3.151,3.481
		h-2.821c-0.44-1.438-1.109-2.512-2.005-3.217C140.51,47.374,139.519,47.021,138.431,47.021z"/>
	<path fill="#0A161B" d="M150.288,41.909c-0.353-0.354-0.529-0.795-0.529-1.323c0-0.529,0.177-0.977,0.529-1.344
		c0.353-0.368,0.793-0.552,1.322-0.552c0.529,0,0.977,0.184,1.344,0.552c0.367,0.367,0.551,0.814,0.551,1.344
		c0,0.528-0.184,0.97-0.551,1.323c-0.367,0.352-0.815,0.527-1.344,0.527C151.081,42.437,150.641,42.261,150.288,41.909z
		 M153.814,68.885c-1.205,0-2.123-0.265-2.755-0.793c-0.632-0.529-0.963-1.059-0.992-1.587l-0.043-0.749v-18.91h3.085v18.91
		c0,0.852,0.169,1.506,0.507,1.961c0.337,0.455,0.668,0.698,0.992,0.727l0.528,0.089h1.366v0.353H153.814z"/>
	<path fill="#0A161B" d="M172.459,48.388c-0.47-0.381-1.227-0.706-2.27-0.969c-1.044-0.266-1.829-0.397-2.358-0.397
		c-0.528,0-0.837,0-0.926,0c-1.586,0.03-2.733,0.434-3.438,1.213c-0.706,0.778-1.059,1.653-1.059,2.622
		c0,0.97,0.309,1.785,0.926,2.447c0.616,0.66,1.389,1.176,2.314,1.542c0.926,0.368,1.925,0.787,2.997,1.257s2.072,0.947,2.997,1.433
		c0.926,0.484,1.697,1.189,2.314,2.115s0.926,2.08,0.926,3.46c0,1.382-0.485,2.557-1.455,3.526c-0.97,0.971-2.049,1.616-3.239,1.94
		c-1.19,0.323-2.476,0.483-3.857,0.483c-2.997,0-5.245-0.66-6.744-1.983l0.265-0.265c0.587,0.56,1.461,1.016,2.622,1.367
		c1.161,0.353,2.285,0.529,3.373,0.529c1.733,0,3.165-0.479,4.298-1.434c1.131-0.953,1.696-2.144,1.696-3.569
		c0-1.425-0.426-2.571-1.278-3.438c-0.852-0.866-1.889-1.543-3.107-2.028c-1.219-0.483-2.446-0.969-3.68-1.454
		c-1.235-0.484-2.278-1.16-3.131-2.027c-0.852-0.866-1.278-1.873-1.278-3.021c0-1.146,0.265-2.078,0.793-2.798
		s1.234-1.228,2.116-1.521c1.5-0.5,2.998-0.749,4.497-0.749c2.526,0,4.496,0.47,5.906,1.41L172.459,48.388z"/>
</g>
</svg>
